<svg xmlns="http://www.w3.org/2000/svg" width="1200" height="630" viewBox="0 0 1200 630" role="img" aria-labelledby="title desc">
  <title id="title">OpenAPI Studio</title>
  <desc id="desc">Contract changes, made reviewable. Public demand-validation build.</desc>
  <defs>
    <style>
      @font-face { font-family: Martian; src: url('../fonts/MartianGrotesk.woff2') format('woff2'); font-weight: 100 1000; }
      .sans { font-family: Martian, Arial, sans-serif; }
      .mono { font-family: ui-monospace, SFMono-Regular, Consolas, monospace; }
    </style>
  </defs>

  <rect width="1200" height="630" fill="#f5f5f3"/>
  <rect y="620" width="1200" height="10" fill="#cf2f1b"/>

  <g transform="translate(64 54)" fill="none" stroke="#cf2f1b" stroke-width="3">
    <path d="M0 0h18l8 11-8 11H0l8-11L0 0Z"/>
    <path d="M52 18H34l-8 11 8 11h18L44 29l8-11Z"/>
  </g>
  <text class="sans" x="130" y="82" fill="#171310" font-size="20" font-weight="760">OpenAPI Studio</text>
  <text class="sans" x="1136" y="81" fill="#5e5853" font-size="13" font-weight="650" text-anchor="end">PUBLIC DEMAND-VALIDATION BUILD</text>

  <text class="sans" x="64" y="202" fill="#cf2f1b" font-size="54" font-weight="720" letter-spacing="-1.8">
    <tspan x="64" dy="0">Contract changes,</tspan>
    <tspan x="64" dy="60">made reviewable.</tspan>
  </text>
  <text class="sans" x="68" y="350" fill="#171310" font-size="19" font-weight="480">
    <tspan x="68" dy="0">A clearer path from OpenAPI contract change</tspan>
    <tspan x="68" dy="31">to consequence and team decision.</tspan>
  </text>

  <g transform="translate(68 455)">
    <rect width="438" height="68" fill="#171310"/>
    <text class="sans" x="22" y="28" fill="#98918b" font-size="11" font-weight="650">CURRENT STATUS</text>
    <text class="sans" x="22" y="49" fill="#ffffff" font-size="14" font-weight="650">Demand validation · product not available yet</text>
  </g>

  <g transform="translate(648 142)">
    <rect width="488" height="386" fill="#171310"/>
    <text class="sans" x="28" y="34" fill="#98918b" font-size="12">ILLUSTRATIVE PRODUCT CONCEPT</text>
    <text class="sans" x="28" y="57" fill="#ffffff" font-size="14" font-weight="700">billing-api.yaml</text>
    <rect x="328" y="24" width="132" height="32" fill="#ff654b"/>
    <text class="sans" x="394" y="45" fill="#171310" font-size="11" font-weight="800" text-anchor="middle">IMPACT DETECTED</text>
    <line x1="0" y1="82" x2="488" y2="82" stroke="#38332f"/>
    <rect x="28" y="105" width="42" height="28" fill="#ffffff"/>
    <text class="mono" x="49" y="124" fill="#171310" font-size="12" font-weight="700" text-anchor="middle">GET</text>
    <text class="mono" x="86" y="124" fill="#ffffff" font-size="13">/invoices/{invoiceId}</text>
    <line x1="0" y1="154" x2="488" y2="154" stroke="#38332f"/>
    <text class="mono" x="30" y="183" fill="#98918b" font-size="12">42</text>
    <text class="mono" x="78" y="183" fill="#ffffff" font-size="12">required:</text>
    <rect y="198" width="488" height="38" fill="#39201d"/>
    <text class="mono" x="28" y="222" fill="#ff8d7a" font-size="12">43 −    − dueDate</text>
    <rect y="236" width="488" height="38" fill="#173126"/>
    <text class="mono" x="28" y="260" fill="#a4e1bc" font-size="12">43 +    − paymentDueAt</text>
    <rect x="28" y="296" width="432" height="60" fill="#ff654b"/>
    <circle cx="58" cy="326" r="13" fill="none" stroke="#171310" stroke-width="2"/>
    <text class="sans" x="58" y="331" fill="#171310" font-size="16" font-weight="900" text-anchor="middle">!</text>
    <text class="sans" x="84" y="319" fill="#171310" font-size="11" font-weight="800">BREAKING CHANGE</text>
    <text class="sans" x="84" y="340" fill="#171310" font-size="14" font-weight="700">Required response field removed</text>
  </g>
</svg>
